<?xml version="1.0" standalone="no"?>
<!DOCTYPE svg PUBLIC "-//W3C//DTD SVG 20010904//EN"
 "http://www.w3.org/TR/2001/REC-SVG-20010904/DTD/svg10.dtd">
<svg version="1.0" xmlns="http://www.w3.org/2000/svg"
 width="479.000000pt" height="308.000000pt" viewBox="0 0 479.000000 308.000000"
 preserveAspectRatio="xMidYMid meet">

<g transform="translate(0.000000,308.000000) scale(0.100000,-0.100000)"
fill="#000000" stroke="none">
<path d="M2283 3049 c-264 -24 -462 -118 -659 -314 -245 -244 -357 -516 -358
-875 0 -174 15 -275 65 -418 107 -306 359 -589 634 -712 175 -78 409 -130 590
-130 138 0 155 9 155 79 0 26 -5 52 -12 59 -8 8 -51 12 -128 12 -286 0 -575
97 -763 257 -90 76 -189 195 -253 302 -176 299 -190 713 -34 1037 106 219 326
427 534 503 248 91 605 71 814 -46 239 -134 401 -324 475 -558 95 -303 42
-596 -151 -836 -105 -130 -234 -219 -397 -275 -107 -36 -299 -45 -426 -19
-322 65 -519 256 -611 593 -32 115 -31 300 0 402 80 255 253 425 490 481 73
18 108 20 217 16 192 -7 302 -50 426 -165 95 -88 161 -196 195 -322 27 -100
24 -265 -7 -355 -15 -44 -30 -71 -40 -73 -15 -3 -17 19 -21 195 -5 219 -12
249 -67 296 -43 36 -81 42 -266 42 -127 -1 -168 -4 -197 -17 -35 -16 -41 -16
-75 0 -30 13 -71 16 -198 17 -185 0 -223 -6 -266 -42 -58 -49 -63 -72 -67
-350 -4 -244 -3 -252 17 -272 25 -25 68 -27 99 -5 21 15 22 20 22 212 0 247 6
299 34 315 13 8 69 12 154 12 184 0 172 20 172 -286 0 -234 0 -238 22 -253 12
-9 34 -16 48 -16 14 0 36 7 48 16 22 15 22 19 22 247 0 128 3 242 6 255 4 13
17 25 33 30 44 12 264 8 287 -5 27 -16 34 -78 34 -310 0 -192 7 -220 60 -248
106 -55 237 40 284 206 76 265 2 574 -187 775 -155 166 -320 240 -557 251
-200 9 -374 -31 -500 -114 -226 -149 -361 -372 -392 -646 -10 -90 -9 -119 6
-213 76 -468 358 -761 795 -824 113 -17 304 -8 406 19 416 110 720 493 742
936 21 417 -214 812 -609 1025 -161 86 -416 130 -645 109z"/>
<path d="M3000 335 l0 -55 -27 11 c-39 15 -155 15 -193 -1 -41 -17 -60 -57
-60 -125 0 -107 42 -141 170 -133 49 2 74 9 89 22 21 19 21 19 21 -2 0 -15 6
-22 20 -22 19 0 20 7 20 180 0 173 -1 180 -20 180 -18 0 -20 -7 -20 -55z m-21
-91 c32 -40 29 -126 -4 -159 -21 -22 -33 -25 -100 -25 -100 0 -115 14 -115
105 0 92 15 105 119 105 74 0 81 -2 100 -26z"/>
<path d="M4444 313 c-74 -162 -124 -273 -124 -278 0 -3 8 -5 18 -5 18 0 27 17
158 308 23 51 23 52 4 52 -16 0 -29 -18 -56 -77z"/>
<path d="M131 312 c-52 -31 -99 -65 -104 -74 -15 -23 0 -38 86 -89 40 -23 82
-49 95 -57 21 -14 22 -13 22 15 0 26 -7 33 -81 68 -44 22 -83 43 -85 47 -3 4
33 27 81 50 76 38 85 45 85 70 0 16 -1 28 -2 28 -2 0 -45 -26 -97 -58z"/>
<path d="M1670 335 c0 -32 -2 -35 -31 -35 -24 0 -30 -4 -27 -17 2 -11 14 -19
31 -21 l27 -3 0 -89 c0 -119 12 -135 104 -135 76 0 100 17 111 78 7 33 5 37
-14 37 -16 0 -21 -6 -21 -28 0 -40 -17 -52 -71 -52 -64 0 -70 11 -67 112 l3
83 83 -4 c78 -3 82 -2 82 18 0 20 -5 21 -85 21 l-85 0 0 35 c0 28 -4 35 -20
35 -16 0 -20 -7 -20 -35z"/>
<path d="M4570 343 c0 -26 8 -33 85 -71 48 -23 84 -46 81 -50 -2 -4 -41 -25
-85 -47 -74 -35 -81 -42 -81 -68 0 -28 1 -29 23 -15 12 8 54 34 94 57 118 70
119 80 12 144 -35 22 -79 48 -96 59 l-33 20 0 -29z"/>
<path d="M420 301 c-19 -4 -45 -13 -57 -20 -19 -10 -23 -9 -23 4 0 9 -9 15
-25 15 l-25 0 0 -135 0 -135 25 0 25 0 0 104 c0 122 4 128 91 134 91 7 99 -5
99 -135 l0 -103 25 0 25 0 0 104 c0 122 4 128 91 134 91 7 99 -5 99 -135 l0
-103 26 0 27 0 -5 108 c-8 154 -17 166 -132 164 -44 -1 -67 -6 -88 -22 l-28
-20 -20 20 c-11 11 -31 20 -44 20 -13 0 -30 2 -38 4 -7 2 -29 1 -48 -3z"/>
<path d="M976 301 c-46 -7 -86 -36 -86 -62 0 -17 35 -9 53 11 14 17 29 20 90
20 85 0 104 -12 114 -75 6 -35 5 -38 -13 -29 -10 4 -60 10 -109 12 -81 3 -94
1 -118 -18 -34 -27 -37 -78 -6 -106 30 -27 172 -33 218 -10 27 15 31 15 31 1
0 -8 9 -15 20 -15 18 0 20 7 20 83 0 106 -13 153 -48 171 -36 18 -106 25 -166
17z m133 -160 c13 -3 29 -15 35 -24 9 -15 6 -22 -13 -38 -18 -15 -39 -19 -98
-19 -41 0 -83 5 -94 10 -24 13 -25 56 -1 69 19 11 133 13 171 2z"/>
<path d="M1341 300 c-29 -5 -60 -15 -69 -24 -20 -20 -19 -86 2 -101 9 -7 63
-15 122 -18 58 -4 110 -9 115 -13 5 -3 9 -18 9 -34 0 -40 -23 -50 -119 -50
-70 0 -83 3 -93 20 -14 22 -48 27 -48 8 1 -40 46 -58 143 -58 102 0 143 13
156 50 12 36 -2 85 -27 96 -9 4 -64 10 -122 13 l-105 6 -3 29 c-2 16 2 32 10
37 7 5 52 9 100 9 77 0 89 -2 100 -20 7 -11 21 -20 30 -20 26 0 23 37 -4 54
-29 18 -128 26 -197 16z"/>
<path d="M2046 299 c-27 -4 -58 -17 -69 -27 -34 -35 -43 -141 -15 -194 16 -33
63 -48 148 -48 91 0 140 18 140 50 0 26 -31 26 -48 0 -10 -17 -23 -20 -90 -20
-95 0 -122 15 -122 65 l0 34 133 3 132 3 -3 35 c-4 43 -26 78 -55 89 -39 14
-101 19 -151 10z m144 -49 c11 -11 20 -31 20 -45 l0 -25 -110 0 -110 0 0 29
c0 44 31 61 112 61 55 0 72 -4 88 -20z"/>
<path d="M2432 300 c-18 -4 -42 -16 -52 -25 -19 -17 -20 -17 -20 3 0 15 -6 22
-20 22 -19 0 -20 -7 -20 -135 0 -128 1 -135 20 -135 19 0 20 7 20 98 0 53 4
102 8 108 14 22 52 34 104 34 56 0 78 -12 78 -42 0 -10 7 -18 15 -18 25 0 19
57 -7 74 -31 18 -85 26 -126 16z"/>
<path d="M3202 300 c-65 -10 -95 -45 -100 -117 -9 -124 33 -159 185 -152 82 4
123 22 123 56 0 19 -27 16 -50 -7 -17 -17 -33 -20 -99 -20 -59 0 -84 4 -95 16
-19 18 -30 59 -21 73 4 7 55 11 136 11 l129 0 0 30 c0 44 -24 85 -57 98 -41
15 -102 20 -151 12z m143 -55 c14 -13 25 -33 25 -45 0 -19 -6 -20 -115 -20
-113 0 -115 0 -115 23 0 47 34 66 118 67 54 0 67 -4 87 -25z"/>
<path d="M3943 301 c-63 -8 -93 -32 -93 -77 0 -48 27 -60 144 -68 107 -7 126
-15 126 -52 0 -33 -33 -44 -126 -44 -61 0 -78 4 -94 20 -20 20 -50 27 -50 11
0 -5 8 -19 19 -32 16 -20 29 -23 112 -27 113 -5 164 11 175 54 18 73 -28 103
-161 103 -83 1 -105 10 -105 43 0 28 33 38 119 38 68 0 84 -3 101 -20 33 -33
66 -20 42 16 -20 31 -116 47 -209 35z"/>
<path d="M3529 168 c67 -127 72 -133 101 -133 29 0 34 6 101 133 69 130 70
132 44 132 -22 0 -32 -13 -82 -115 -32 -63 -60 -115 -63 -115 -3 0 -31 52 -63
115 -50 102 -60 115 -82 115 -26 0 -25 -2 44 -132z"/>
</g>
</svg>
