<?xml version="1.0" standalone="no"?>
<!DOCTYPE svg PUBLIC "-//W3C//DTD SVG 20010904//EN"
 "http://www.w3.org/TR/2001/REC-SVG-20010904/DTD/svg10.dtd">
<svg version="1.0" xmlns="http://www.w3.org/2000/svg"
 width="576.000000pt" height="433.000000pt" viewBox="0 0 576.000000 433.000000"
 preserveAspectRatio="xMidYMid meet">

<g transform="translate(0.000000,433.000000) scale(0.100000,-0.100000)"
fill="#000000" stroke="none">
<path d="M2735 4185 c-5 -2 -50 -9 -100 -15 -230 -27 -387 -72 -570 -163 -184
-92 -320 -192 -485 -357 -150 -151 -260 -301 -357 -491 -104 -202 -148 -335
-203 -601 -29 -144 -29 -589 1 -723 6 -27 18 -81 26 -120 31 -139 94 -314 160
-444 44 -85 147 -256 170 -279 7 -8 18 -23 24 -34 12 -22 25 -38 140 -168 66
-75 141 -146 243 -231 16 -13 34 -29 40 -34 6 -6 28 -21 49 -34 21 -13 43 -28
50 -34 23 -21 184 -105 285 -150 123 -54 333 -117 522 -156 199 -42 534 -55
610 -25 48 20 70 55 70 116 0 51 -30 105 -62 112 -13 3 -111 7 -218 10 -221 4
-304 14 -477 56 -211 52 -414 136 -588 245 -92 57 -97 61 -179 135 -128 115
-208 203 -294 322 -55 76 -182 281 -182 294 0 3 -11 29 -23 57 -116 255 -162
552 -138 881 6 88 16 177 21 196 5 19 17 67 25 105 27 119 77 255 129 355 15
30 35 69 44 85 20 38 114 183 139 212 10 12 29 37 43 55 51 66 193 202 275
263 22 17 42 32 45 35 3 3 32 23 65 45 330 217 758 286 1235 199 47 -9 101
-20 120 -26 82 -26 199 -72 245 -98 28 -15 66 -36 85 -46 19 -11 37 -22 40
-25 3 -3 25 -18 49 -34 25 -15 49 -31 55 -36 6 -5 43 -34 81 -65 89 -71 168
-150 239 -239 31 -38 60 -74 64 -80 23 -28 103 -169 136 -239 53 -111 62 -136
97 -266 22 -84 49 -293 49 -387 0 -175 -44 -395 -106 -531 -13 -29 -24 -56
-24 -61 0 -15 -115 -210 -152 -256 -201 -258 -411 -413 -688 -508 -260 -89
-630 -88 -910 5 -211 69 -424 212 -555 371 -22 27 -45 54 -50 60 -38 44 -124
204 -165 307 -31 77 -45 127 -76 265 -23 103 -27 143 -27 280 0 142 3 172 28
270 40 159 122 338 194 429 67 83 145 167 177 191 22 16 41 32 44 35 28 32
161 116 220 138 182 68 312 92 501 92 221 0 414 -47 564 -134 240 -141 414
-358 498 -621 29 -91 57 -260 57 -345 0 -67 -26 -253 -41 -295 -36 -99 -61
-135 -91 -135 -17 0 -18 15 -18 298 -1 298 -8 383 -40 442 -17 32 -78 92 -110
107 -127 62 -563 67 -728 10 -59 -20 -73 -22 -93 -11 -63 33 -182 47 -389 47
-330 1 -432 -34 -491 -168 -30 -68 -41 -239 -37 -613 3 -279 4 -301 22 -321
48 -53 171 -48 201 8 10 21 14 114 17 423 3 386 4 398 24 418 29 29 226 45
395 32 180 -15 163 30 167 -450 2 -268 6 -404 14 -419 6 -13 30 -30 54 -39 57
-22 109 -12 146 28 l28 30 0 398 c0 364 1 400 18 419 15 19 33 23 149 32 146
12 345 0 381 -22 11 -7 24 -22 27 -34 4 -11 9 -182 11 -380 3 -198 9 -377 14
-397 22 -78 105 -138 192 -138 41 0 140 29 146 43 2 4 9 7 15 7 21 0 131 125
159 181 87 171 123 440 90 679 -13 94 -59 272 -89 340 -47 108 -115 233 -154
285 -80 103 -189 215 -264 270 -22 17 -42 32 -45 35 -27 27 -150 96 -245 137
-90 39 -202 67 -349 88 -173 25 -439 11 -590 -30 -127 -35 -155 -44 -216 -69
-73 -31 -192 -102 -260 -155 -74 -58 -232 -222 -275 -286 -22 -33 -43 -62 -47
-65 -8 -6 -45 -73 -83 -150 -97 -194 -147 -411 -147 -635 1 -196 45 -427 124
-635 28 -75 126 -274 147 -297 9 -10 32 -41 51 -69 69 -101 158 -192 286 -294
86 -68 278 -170 404 -213 384 -132 851 -125 1195 18 308 128 567 341 750 615
155 234 244 471 280 755 18 133 16 252 -4 420 -10 81 -13 94 -51 245 -45 176
-146 394 -257 553 -203 293 -552 564 -877 681 -151 55 -238 74 -456 101 -103
13 -359 19 -385 10z"/>
</g>
</svg>
