<?xml version="1.0" standalone="no"?>
<!DOCTYPE svg PUBLIC "-//W3C//DTD SVG 20010904//EN"
 "http://www.w3.org/TR/2001/REC-SVG-20010904/DTD/svg10.dtd">
<svg version="1.0" xmlns="http://www.w3.org/2000/svg"
 width="396.000000pt" height="174.000000pt" viewBox="0 0 396.000000 174.000000"
 preserveAspectRatio="xMidYMid meet">

<g transform="translate(0.000000,174.000000) scale(0.100000,-0.100000)"
fill="#000000" stroke="none">
<path d="M472 1710 c-220 -59 -393 -229 -447 -440 -20 -77 -23 -226 -5 -301
67 -292 350 -500 685 -503 l110 -1 0 30 0 30 -110 7 c-196 11 -329 64 -442
176 -85 83 -118 132 -150 219 -49 135 -41 282 23 421 65 141 228 271 381 302
84 18 263 8 336 -19 76 -27 186 -100 238 -159 23 -26 58 -81 78 -122 35 -72
36 -79 36 -185 0 -102 -2 -115 -31 -175 -100 -211 -336 -320 -572 -265 -128
30 -226 101 -280 202 -35 66 -62 163 -62 219 0 98 64 216 153 283 79 60 125
74 247 75 88 0 115 -4 165 -24 83 -32 174 -123 203 -203 36 -94 23 -247 -21
-255 -15 -3 -17 9 -17 107 0 102 -2 112 -24 138 -24 28 -25 28 -143 27 -65 -1
-136 -1 -158 -1 -258 3 -252 3 -279 -22 -26 -25 -27 -25 -24 -170 l3 -146 30
0 30 0 3 130 c3 155 3 155 107 155 104 0 104 0 107 -155 l3 -130 30 0 30 0 3
130 c3 154 3 155 105 155 108 0 107 1 107 -143 0 -67 4 -127 8 -133 14 -21 53
-35 81 -29 80 17 134 147 114 275 -30 193 -171 330 -372 361 -123 19 -268 -7
-356 -63 -66 -41 -134 -118 -167 -188 -27 -54 -33 -80 -36 -156 -9 -202 88
-374 260 -459 336 -165 742 6 823 346 56 240 -72 489 -314 610 -98 49 -148 60
-286 65 -107 3 -143 1 -203 -16z"/>
<path d="M2391 1320 c0 -56 2 -71 10 -57 8 14 24 17 84 17 l75 0 0 -173 c0
-121 -4 -177 -12 -185 -9 -9 6 -12 67 -12 61 0 76 3 67 12 -8 8 -12 64 -12
185 l0 173 79 0 c54 0 81 -4 84 -12 3 -7 5 16 5 52 0 36 -2 59 -5 53 -3 -10
-56 -13 -213 -13 -189 0 -210 2 -219 18 -8 13 -10 -2 -10 -58z"/>
<path d="M3336 1375 c-4 -13 -39 -15 -223 -15 -153 -1 -213 -4 -200 -11 15 -9
17 -30 17 -214 0 -184 -2 -205 -17 -214 -13 -7 48 -10 204 -11 201 0 223 -2
232 -17 8 -14 10 1 10 57 0 56 -2 71 -10 58 -9 -16 -28 -18 -164 -18 l-155 0
0 55 0 55 99 0 c70 0 101 -4 104 -12 3 -7 5 16 5 52 0 36 -2 59 -5 53 -3 -9
-34 -13 -104 -13 l-99 0 0 50 0 50 150 0 c131 0 150 -2 159 -17 8 -14 10 0 11
55 0 72 -3 85 -14 57z"/>
<path d="M2035 1361 c-42 -11 -87 -35 -109 -60 -29 -32 -32 -108 -7 -149 27
-43 53 -52 189 -67 118 -13 136 -20 130 -51 -5 -29 -47 -44 -123 -43 -74 0
-134 16 -164 43 -20 18 -18 21 -59 -83 -3 -9 -1 -12 6 -7 7 4 40 -3 75 -15 81
-28 203 -31 268 -6 70 27 94 58 94 122 0 91 -42 120 -197 135 -57 6 -113 15
-125 20 -34 14 -29 46 9 66 62 32 241 0 251 -45 2 -10 14 5 30 37 17 32 23 52
15 52 -6 0 -40 11 -74 25 -68 27 -161 39 -209 26z"/>
<path d="M1502 1340 c11 -17 1 -44 -82 -211 -52 -105 -104 -197 -115 -205 -17
-12 -9 -14 70 -14 66 1 85 3 73 11 -22 13 -23 29 -1 74 l17 35 106 0 107 0 18
-41 c15 -33 16 -44 7 -60 -12 -18 -8 -19 80 -19 85 0 91 1 71 15 -24 17 -213
366 -213 394 0 9 5 22 12 29 9 9 -7 12 -75 12 -85 0 -87 -1 -75 -20z m103
-180 l35 -70 -70 0 c-38 0 -70 2 -70 5 0 7 64 135 67 135 2 0 19 -31 38 -70z"/>
<path d="M3453 1350 c15 -10 17 -31 17 -215 0 -184 -2 -205 -17 -214 -13 -8 4
-10 67 -10 63 0 80 2 68 10 -15 8 -18 25 -18 94 l0 85 58 0 57 0 54 -80 c46
-67 52 -82 41 -95 -11 -13 -2 -15 77 -15 l90 0 -31 33 c-17 19 -50 61 -74 95
l-43 62 26 10 c14 6 30 10 34 10 4 0 20 13 35 29 23 24 28 38 28 79 0 113 -28
126 -287 130 -146 2 -195 0 -182 -8z m355 -82 c19 -19 15 -66 -7 -78 -11 -5
-67 -10 -125 -10 l-106 0 0 50 0 50 113 0 c75 0 117 -4 125 -12z"/>
<path d="M1325 295 l0 -277 190 4 c180 3 193 5 246 30 95 44 139 121 139 243
0 122 -44 199 -139 243 -53 25 -66 27 -246 30 l-190 4 0 -277z m385 167 c55
-27 75 -73 75 -167 0 -62 -4 -88 -20 -115 -33 -57 -72 -70 -207 -70 l-118 0 0
185 0 185 118 0 c91 0 125 -4 152 -18z"/>
<path d="M2215 473 l-210 -3 0 -225 0 -225 218 0 217 0 0 43 0 42 -165 -3
-165 -3 0 56 0 55 105 0 105 0 0 40 0 40 -105 0 -105 0 0 50 0 51 160 -3 160
-3 0 48 c0 26 -1 46 -2 45 -2 -2 -97 -4 -213 -5z"/>
<path d="M2513 453 c32 -36 189 -384 184 -409 -4 -23 -3 -24 63 -24 66 0 67 0
62 25 -3 17 22 80 83 207 47 101 94 191 102 201 15 16 12 17 -54 17 l-71 0 1
-32 c0 -21 -23 -80 -60 -158 l-60 -125 -58 120 c-38 77 -58 133 -59 158 l-1
37 -74 0 c-70 0 -73 -1 -58 -17z"/>
</g>
</svg>
