<?xml version="1.0" standalone="no"?>
<!DOCTYPE svg PUBLIC "-//W3C//DTD SVG 20010904//EN"
 "http://www.w3.org/TR/2001/REC-SVG-20010904/DTD/svg10.dtd">
<svg version="1.0" xmlns="http://www.w3.org/2000/svg"
 width="360.000000pt" height="360.000000pt" viewBox="0 0 360.000000 360.000000"
 preserveAspectRatio="xMidYMid meet">

<g transform="translate(0.000000,360.000000) scale(0.100000,-0.100000)"
fill="#000000" stroke="none">
<path d="M1650 3286 c-183 -42 -330 -135 -445 -279 -103 -129 -152 -262 -162
-437 -13 -231 63 -426 228 -587 81 -79 100 -93 179 -136 118 -64 195 -82 360
-82 159 0 233 16 351 75 130 66 277 214 342 345 71 143 96 341 63 506 -53 266
-263 494 -531 579 -87 28 -299 37 -385 16z"/>
<path d="M1005 1883 c-329 -44 -535 -343 -595 -868 -15 -133 -13 -370 5 -434
46 -173 175 -300 350 -346 88 -22 2001 -23 2088 0 134 35 257 127 311 233 47
93 58 153 57 322 -1 356 -79 663 -216 855 -103 145 -235 220 -425 240 -50 6
-60 3 -110 -28 -231 -142 -274 -166 -361 -195 -130 -43 -223 -56 -349 -49
-174 10 -328 66 -515 186 -146 94 -151 96 -240 84z"/>
</g>
</svg>
